<svg width="71" height="70" viewBox="0 0 71 70" fill="none" xmlns="http://www.w3.org/2000/svg">
<g opacity="0.3">
<path d="M60.931 33.4083C61.7319 39.2036 60.6924 45.1041 57.9593 50.2769C55.2262 55.4497 50.9375 59.6334 45.6986 62.2376C40.4598 64.8417 34.5353 65.7347 28.7616 64.7906C22.9879 63.8464 17.6565 61.1128 13.5201 56.9755C9.38361 52.8382 6.651 47.5063 5.70797 41.7324C4.76494 35.9585 5.65913 30.0343 8.26431 24.7959C10.8695 19.5576 15.0541 15.2697 20.2274 12.5376C25.4007 9.80553 31.3014 8.7672 37.0965 9.56921L35.3139 11.3518C34.6649 12 34.15 12.7698 33.7986 13.6171C33.4472 14.4644 33.2663 15.3727 33.2661 16.29C29.1237 16.29 25.0744 17.5183 21.6301 19.8197C18.1859 22.1211 15.5014 25.3921 13.9162 29.2191C12.331 33.0462 11.9162 37.2573 12.7244 41.3201C13.5325 45.3829 15.5272 49.1148 18.4563 52.0439C21.3854 54.9729 25.1173 56.9677 29.1801 57.7758C33.2428 58.584 37.454 58.1692 41.2811 56.584C45.1081 54.9988 48.3791 52.3143 50.6805 48.87C52.9819 45.4258 54.2102 41.3765 54.2102 37.2341C56.0612 37.2325 57.8357 36.4959 59.1437 35.1862L60.931 33.4083Z" fill="#333333"/>
<path d="M51.4922 5.6865C51.7479 6.06996 51.8839 6.52069 51.8831 6.98156V18.6172H63.5187C63.9796 18.6164 64.4303 18.7524 64.8138 19.0081C65.1973 19.2637 65.4962 19.6275 65.6726 20.0532C65.8491 20.4789 65.8952 20.9475 65.8051 21.3995C65.7149 21.8514 65.4926 22.2665 65.1663 22.5919L55.8578 31.9004C55.6413 32.1164 55.3844 32.2876 55.1016 32.4042C54.8189 32.5208 54.516 32.5805 54.2102 32.58H41.2109L37.7621 36.0288C37.9333 36.6686 37.966 37.3376 37.858 37.9911C37.75 38.6446 37.5037 39.2675 37.1357 39.8182C36.7676 40.3689 36.2863 40.8347 35.7238 41.1845C35.1613 41.5343 34.5307 41.76 33.874 41.8465C33.2173 41.933 32.5497 41.8783 31.9158 41.6862C31.2819 41.494 30.6964 41.1688 30.1983 40.7322C29.7001 40.2956 29.301 39.7577 29.0274 39.1545C28.7538 38.5513 28.6121 37.8966 28.6118 37.2342C28.6129 36.5204 28.7778 35.8164 29.0938 35.1764C29.4098 34.5363 29.8686 33.9774 30.4346 33.5426C31.0007 33.1078 31.6591 32.8087 32.359 32.6685C33.0589 32.5282 33.7816 32.5505 34.4715 32.7336L37.9203 29.2894V16.2901C37.9198 15.9843 37.9795 15.6813 38.0961 15.3986C38.2127 15.1159 38.3839 14.859 38.5998 14.6425L47.9084 5.33395C48.2338 5.00766 48.6489 4.78535 49.1008 4.69521C49.5528 4.60508 50.0213 4.65117 50.4471 4.82764C50.8728 5.00412 51.2366 5.30304 51.4922 5.6865Z" fill="#333333"/>
<path d="M33.266 20.9441C30.0441 20.9441 26.8947 21.8995 24.2158 23.6894C21.5369 25.4794 19.449 28.0235 18.2161 31.0001C16.9831 33.9767 16.6605 37.2521 17.2891 40.412C17.9176 43.5719 19.4691 46.4745 21.7473 48.7527C24.0255 51.0309 26.928 52.5823 30.088 53.2109C33.2479 53.8394 36.5233 53.5168 39.4998 52.2839C42.4764 51.0509 45.0206 48.963 46.8105 46.2842C48.6005 43.6053 49.5559 40.4558 49.5559 37.234H43.1377L42.5559 37.8158C42.444 39.6038 41.8185 41.3216 40.7545 42.7629C39.6905 44.2042 38.2331 45.3079 36.5573 45.9415C34.8816 46.575 33.0586 46.7115 31.3071 46.3346C29.5557 45.9577 27.9502 45.0833 26.6834 43.8165C25.4166 42.5497 24.5423 40.9443 24.1654 39.1928C23.7884 37.4414 23.9249 35.6184 24.5585 33.9426C25.192 32.2669 26.2957 30.8095 27.7371 29.7455C29.1784 28.6815 30.8962 28.056 32.6842 27.9441L33.266 27.3623V20.9441Z" fill="#333333"/>
</g>
</svg>
