<svg width="71" height="70" viewBox="0 0 71 70" fill="none" xmlns="http://www.w3.org/2000/svg">
<g opacity="0.3">
<circle cx="35.4999" cy="35.0001" r="20.1064" fill="#333333"/>
<circle cx="35.4998" cy="35.0001" r="26.8333" stroke="#333333" stroke-width="7"/>
<path d="M38.8442 21.8312C38.5169 21.9331 38.2132 22.264 37.9305 22.8286C37.7394 23.2092 37.6478 23.4803 37.5535 23.9505C37.3676 24.846 37.2393 25.331 37.0796 25.7141C36.8859 26.1867 36.7367 26.4155 36.4068 26.7513C36.0638 27.0996 35.6371 27.5896 35.0271 28.3259C33.9459 29.6318 33.2312 30.393 32.7835 30.7089C32.5348 30.8855 32.5138 30.8954 32.2677 30.9352C31.9143 30.9949 31.6761 31.1566 31.5137 31.4526L31.4404 31.5845V36.4226V41.2606L31.5111 41.3875C31.6682 41.6736 32.0112 41.875 32.4091 41.9198C32.8934 41.9745 33.6448 42.1785 34.9355 42.6039C35.3308 42.7357 35.7078 42.8576 35.7733 42.875C35.8387 42.8949 36.1136 42.9795 36.3885 43.0616C37.5352 43.4148 38.9986 43.6909 40.0799 43.7605C40.5956 43.7929 42.3837 43.7929 42.8681 43.7605C43.9441 43.6859 44.7321 43.3849 45.329 42.8153C45.9521 42.2258 46.2453 41.4771 46.2453 40.4846V40.0766L46.3946 39.91C46.727 39.5393 46.9208 39.1762 47.0569 38.6712C47.1983 38.1513 47.2114 37.6514 47.0936 37.2086L47.0517 37.0494L47.1616 36.8952C47.3292 36.6589 47.5229 36.2559 47.5936 35.9873C47.7481 35.4102 47.7271 34.8206 47.5308 34.1739L47.4784 34.0023L47.5936 33.863C47.8737 33.5247 48.0675 33.1441 48.2036 32.6665C48.2664 32.4476 48.2717 32.3929 48.2717 31.8954C48.2717 31.383 48.2691 31.3506 48.201 31.1367C47.9025 30.2089 47.1067 29.4527 46.1668 29.2114C45.8003 29.1169 45.5856 29.1094 43.3864 29.1094C42.2083 29.1094 41.2449 29.1045 41.2449 29.0995C41.2449 29.0323 41.4465 28.607 41.7397 28.0573C42.1193 27.3434 42.2502 27.0225 42.3811 26.4653C42.4885 26.0151 42.5094 25.7812 42.4937 25.1245C42.4701 24.04 42.3419 23.55 41.9151 22.9306C41.5434 22.3859 40.9569 22.0451 40.0982 21.8685C39.7683 21.8013 39.0091 21.7789 38.8442 21.8312Z" fill="white"/>
<path d="M24.8903 30.9601C24.6311 31.0397 24.3981 31.2312 24.2751 31.4675L24.2148 31.5845V36.435V41.2855L24.3039 41.4422C24.4138 41.6338 24.55 41.7532 24.7751 41.8551L24.9479 41.9323H27.3172C29.5739 41.9323 29.6917 41.9298 29.8174 41.885C29.998 41.8203 30.1996 41.6736 30.2965 41.5343C30.4719 41.283 30.4588 41.681 30.4536 36.3852L30.4457 31.5845L30.3855 31.4675C30.2886 31.281 30.1106 31.1118 29.9143 31.0198L29.7389 30.9377L27.3696 30.9327C25.4584 30.9278 24.9793 30.9352 24.8903 30.9601ZM27.4245 38.3254C27.6916 38.415 27.9586 38.6986 28.0241 38.9622C28.0686 39.1339 28.045 39.4174 27.9769 39.5642C27.901 39.7259 27.689 39.9323 27.5083 40.0194C27.3696 40.0841 27.3329 40.0915 27.0947 40.0915C26.8617 40.0915 26.8172 40.0841 26.6863 40.0244C26.5082 39.9398 26.2936 39.7433 26.2202 39.5965C26.1051 39.3602 26.1024 39.0219 26.2176 38.8005C26.2936 38.6488 26.4611 38.4747 26.6051 38.3951C26.8355 38.2657 27.1654 38.2384 27.4245 38.3254Z" fill="white"/>
<path d="M27.4245 38.3254C27.6916 38.415 27.9586 38.6986 28.0241 38.9622C28.0686 39.1339 28.045 39.4174 27.9769 39.5642C27.901 39.7259 27.689 39.9323 27.5083 40.0194C27.3696 40.0841 27.3329 40.0915 27.0947 40.0915C26.8617 40.0915 26.8172 40.0841 26.6863 40.0244C26.5082 39.9398 26.2936 39.7433 26.2202 39.5965C26.1051 39.3602 26.1024 39.0219 26.2176 38.8005C26.2936 38.6488 26.4611 38.4747 26.6051 38.3951C26.8355 38.2657 27.1654 38.2384 27.4245 38.3254Z" fill="white"/>
</g>
</svg>
