<svg width="71" height="70" viewBox="0 0 71 70" fill="none" xmlns="http://www.w3.org/2000/svg">
<g opacity="0.3">
<path d="M18.127 63.0305C17.5747 63.0305 17.127 62.5828 17.127 62.0305V60.7479C17.127 53.184 23.3177 47.0522 30.9543 47.0522H40.1725C47.8091 47.0522 53.9999 53.184 53.9999 60.7479V62.0305C53.9999 62.5828 53.5522 63.0305 52.9999 63.0305H18.127Z" fill="#333333" stroke="#333333" stroke-width="2" stroke-linecap="round"/>
<path d="M35.5634 40.2045C30.4724 40.2045 26.3452 36.1166 26.3452 31.074C26.3452 26.0314 30.4724 21.9436 35.5634 21.9436C40.6544 21.9436 44.7817 26.0314 44.7817 31.074C44.7817 36.1166 40.6544 40.2045 35.5634 40.2045Z" fill="#333333" stroke="#333333" stroke-width="2" stroke-linecap="round"/>
<path d="M59.3972 22.0112C59.5853 21.6579 60.0916 21.6579 60.2797 22.0112L61.9772 25.1979C62.0499 25.3344 62.1817 25.4295 62.3341 25.4556L65.9108 26.0686C66.3085 26.1368 66.4658 26.6236 66.1832 26.9116L63.6591 29.484C63.5497 29.5954 63.4987 29.7515 63.5211 29.906L64.0374 33.4613C64.095 33.8586 63.6846 34.1585 63.3236 33.9827L60.0574 32.392C59.9192 32.3247 59.7577 32.3247 59.6195 32.392L56.3533 33.9827C55.9923 34.1585 55.5819 33.8586 55.6395 33.4613L56.1558 29.906C56.1782 29.7515 56.1272 29.5954 56.0178 29.484L53.4937 26.9116C53.2111 26.6236 53.3684 26.1368 53.7661 26.0686L57.3428 25.4556C57.4952 25.4295 57.627 25.3344 57.6997 25.1979L59.3972 22.0112Z" fill="#333333"/>
<path d="M10.2331 22.0112C10.4213 21.6579 10.9275 21.6579 11.1157 22.0112L12.8132 25.1979C12.8859 25.3344 13.0176 25.4295 13.17 25.4556L16.7467 26.0686C17.1444 26.1368 17.3017 26.6236 17.0191 26.9116L14.495 29.484C14.3857 29.5954 14.3347 29.7515 14.3571 29.906L14.8733 33.4613C14.931 33.8586 14.5205 34.1585 14.1595 33.9827L10.8933 32.392C10.7551 32.3247 10.5937 32.3247 10.4555 32.392L7.18922 33.9827C6.82828 34.1585 6.4178 33.8586 6.47548 33.4613L6.99169 29.906C7.01412 29.7515 6.96311 29.5954 6.85376 29.484L4.32964 26.9116C4.04705 26.6236 4.20439 26.1368 4.60207 26.0686L8.17876 25.4556C8.33116 25.4295 8.4629 25.3344 8.5356 25.1979L10.2331 22.0112Z" fill="#333333"/>
<path d="M19.4514 8.31551C19.6395 7.96227 20.1458 7.96227 20.3339 8.31551L22.0314 11.5022C22.1041 11.6387 22.2359 11.7338 22.3883 11.76L25.965 12.3729C26.3626 12.4411 26.52 12.9279 26.2374 13.2159L23.7133 15.7883C23.6039 15.8997 23.5529 16.0558 23.5753 16.2103L24.0915 19.7657C24.1492 20.163 23.7388 20.4628 23.3778 20.287L20.1116 18.6963C19.9734 18.629 19.8119 18.629 19.6737 18.6963L16.4075 20.287C16.0465 20.4628 15.6361 20.163 15.6937 19.7657L16.21 16.2103C16.2324 16.0558 16.1814 15.8997 16.072 15.7883L13.5479 13.2159C13.2653 12.9279 13.4226 12.4411 13.8203 12.3729L17.397 11.76C17.5494 11.7338 17.6812 11.6387 17.7539 11.5022L19.4514 8.31551Z" fill="#333333"/>
<path d="M34.8151 2.22859C35.0033 1.87535 35.5096 1.87535 35.6977 2.22859L37.3952 5.4153C37.4679 5.55176 37.5996 5.64692 37.752 5.67304L41.3287 6.28601C41.7264 6.35416 41.8838 6.84102 41.6012 7.12901L39.077 9.70138C38.9677 9.81281 38.9167 9.96892 38.9391 10.1234L39.4553 13.6787C39.513 14.0761 39.1025 14.3759 38.7416 14.2001L35.4753 12.6094C35.3372 12.5421 35.1757 12.5421 35.0375 12.6094L31.7713 14.2001C31.4103 14.3759 30.9998 14.0761 31.0575 13.6787L31.5737 10.1234C31.5962 9.96892 31.5451 9.81281 31.4358 9.70138L28.9117 7.12901C28.6291 6.84102 28.7864 6.35416 29.1841 6.28601L32.7608 5.67304C32.9132 5.64692 33.0449 5.55176 33.1176 5.4153L34.8151 2.22859Z" fill="#333333"/>
<path d="M50.1789 8.31551C50.3671 7.96227 50.8733 7.96227 51.0615 8.31551L52.759 11.5022C52.8317 11.6387 52.9634 11.7338 53.1158 11.76L56.6925 12.3729C57.0902 12.4411 57.2475 12.9279 56.9649 13.2159L54.4408 15.7883C54.3315 15.8997 54.2805 16.0558 54.3029 16.2103L54.8191 19.7657C54.8768 20.163 54.4663 20.4628 54.1053 20.287L50.8391 18.6963C50.7009 18.629 50.5395 18.629 50.4013 18.6963L47.135 20.287C46.7741 20.4628 46.3636 20.163 46.4213 19.7657L46.9375 16.2103C46.9599 16.0558 46.9089 15.8997 46.7996 15.7883L44.2754 13.2159C43.9929 12.9279 44.1502 12.4411 44.5479 12.3729L48.1246 11.76C48.277 11.7338 48.4087 11.6387 48.4814 11.5022L50.1789 8.31551Z" fill="#333333"/>
</g>
</svg>
