<svg width="70" height="70" viewBox="0 0 70 70" fill="none" xmlns="http://www.w3.org/2000/svg">
<g opacity="0.3">
<rect x="4.2002" y="43.9657" width="11.4545" height="20.3072" rx="2" fill="#333333"/>
<rect x="18.2002" y="36.3505" width="11.4545" height="27.9224" rx="2" fill="#333333"/>
<rect x="32.2002" y="31.2734" width="11.4545" height="32.9992" rx="2" fill="#333333"/>
<rect x="46.2002" y="26.1965" width="11.4545" height="38.076" rx="2" fill="#333333"/>
<path d="M4.06761 35.8504C3.5202 35.9237 3.1358 36.4268 3.20902 36.9742C3.28225 37.5216 3.78538 37.906 4.33278 37.8328L4.06761 35.8504ZM47.4729 17.8036L35.9633 18.7315L42.5217 28.2352L47.4729 17.8036ZM4.33278 37.8328C10.8037 36.9672 25.7783 32.9991 40.5963 23.7627L39.5384 22.0655C24.9766 31.1421 10.2754 35.02 4.06761 35.8504L4.33278 37.8328Z" fill="#333333"/>
<ellipse cx="57.6547" cy="15.3291" rx="8.90909" ry="8.32914" fill="#333333"/>
<path d="M60.9958 16.7114C60.9958 17.3069 60.7805 17.8279 60.3498 18.2745C59.9263 18.714 59.3192 19.0046 58.5285 19.1464V20.3266H57.0354V19.1995C56.5059 19.1712 55.9977 19.0897 55.5106 18.955C55.0305 18.8203 54.6316 18.6537 54.314 18.4552L55.1187 16.6264C55.4717 16.8319 55.8671 16.9985 56.3047 17.1261C56.7424 17.2466 57.1625 17.3069 57.5649 17.3069C57.9108 17.3069 58.1579 17.275 58.3061 17.2112C58.4544 17.1403 58.5285 17.0375 58.5285 16.9028C58.5285 16.7469 58.4297 16.6299 58.232 16.5519C58.0414 16.474 57.7237 16.3889 57.279 16.2967C56.7071 16.1762 56.2306 16.0486 55.8494 15.914C55.4682 15.7722 55.1364 15.5454 54.854 15.2335C54.5716 14.9145 54.4304 14.4856 54.4304 13.9469C54.4304 13.3231 54.6528 12.7879 55.0976 12.3413C55.5494 11.8947 56.1953 11.6112 57.0354 11.4907V10.3317H58.5285V11.4694C59.3756 11.5474 60.0922 11.7529 60.6781 12.0861L59.9263 13.9043C59.1991 13.5357 58.5108 13.3514 57.8614 13.3514C57.219 13.3514 56.8977 13.5074 56.8977 13.8193C56.8977 13.9681 56.993 14.0815 57.1837 14.1595C57.3743 14.2304 57.6884 14.3084 58.1261 14.3934C58.6909 14.4998 59.1674 14.6238 59.5556 14.7656C59.9439 14.9003 60.2792 15.1236 60.5616 15.4355C60.8511 15.7474 60.9958 16.1727 60.9958 16.7114Z" fill="white"/>
</g>
</svg>
