<svg width="71" height="70" viewBox="0 0 71 70" fill="none" xmlns="http://www.w3.org/2000/svg">
<g opacity="0.3" clip-path="url(#clip0_12_161)">
<path fill-rule="evenodd" clip-rule="evenodd" d="M63.364 14.9536C63.099 14.9263 62.8318 14.9263 62.5668 14.9536H56.0001L35.5001 35L15.0001 14.9536H8.12235C7.77341 14.959 7.42678 15.0113 7.0918 15.1091L33.7758 41.6823C34.5569 42.4602 35.8202 42.4594 36.6003 41.6804L63.364 14.9536Z" fill="#333333"/>
<path d="M66.2418 17.6562L37.9307 45.8507C37.2021 46.575 36.2164 46.9816 35.189 46.9816C34.1617 46.9816 33.176 46.575 32.4474 45.8507L4.38904 17.8701C4.30278 18.1872 4.25705 18.5138 4.25293 18.8424V57.7313C4.25293 58.7626 4.66265 59.7518 5.39196 60.4811C6.12127 61.2104 7.11042 61.6201 8.14182 61.6201H62.5863C63.6177 61.6201 64.6068 61.2104 65.3361 60.4811C66.0654 59.7518 66.4752 58.7626 66.4752 57.7313V18.8424C66.4597 18.4372 66.381 18.037 66.2418 17.6562ZM10.8057 57.7313H8.10293V54.9507L22.239 40.9313L24.9807 43.6729L10.8057 57.7313ZM62.5474 57.7313H59.8252L45.6502 43.6729L48.3918 40.9313L62.5279 54.9507L62.5474 57.7313Z" fill="#333333"/>
<path d="M48.9525 4.21523C48.1753 3.43763 47.2524 2.82078 46.2367 2.39992C45.221 1.97907 44.1324 1.76245 43.0329 1.76245C41.9335 1.76245 40.8448 1.97907 39.8291 2.39992C38.8134 2.82078 37.8906 3.43763 37.1134 4.21523L35.5003 5.82827L33.8873 4.21523C32.3173 2.64526 30.188 1.76326 27.9677 1.76326C25.7475 1.76326 23.6181 2.64526 22.0482 4.21523C20.4782 5.7852 19.5962 7.91453 19.5962 10.1348C19.5962 12.3551 20.4782 14.4844 22.0482 16.0544L23.6612 17.6674L35.5003 29.5065L47.3395 17.6674L48.9525 16.0544C49.7301 15.2771 50.347 14.3543 50.7678 13.3386C51.1887 12.3229 51.4053 11.2342 51.4053 10.1348C51.4053 9.03536 51.1887 7.94669 50.7678 6.93099C50.347 5.91529 49.7301 4.99247 48.9525 4.21523Z" fill="#333333"/>
</g>
<defs>
<clipPath id="clip0_12_161">
<rect width="70" height="70" fill="white" transform="translate(0.5)"/>
</clipPath>
</defs>
</svg>
