<svg width="71" height="70" viewBox="0 0 71 70" fill="none" xmlns="http://www.w3.org/2000/svg">
<g opacity="0.3" clip-path="url(#clip0_12_113)">
<path fill-rule="evenodd" clip-rule="evenodd" d="M30.1919 64.1667H40.8085C41.4732 64.1662 42.1178 63.9386 42.6355 63.5217C43.1532 63.1047 43.513 62.5235 43.6552 61.8742L44.8598 56.3938C46.4425 55.7011 47.9431 54.8344 49.3339 53.8096L40.8085 45.2842V24.7334L49.3339 16.208C47.9396 15.1862 46.4384 14.3187 44.8569 13.6209L43.6552 8.12879C43.5135 7.47895 43.154 6.89705 42.6363 6.47956C42.1185 6.06207 41.4736 5.83407 40.8085 5.83337H30.1919C29.5268 5.83407 28.8819 6.06207 28.3641 6.47956C27.8464 6.89705 27.4869 7.47895 27.3452 8.12879L26.1552 13.618C25.3794 13.9534 24.621 14.3296 23.8831 14.7438C23.1189 15.1871 22.3781 15.6771 21.6664 16.2021L16.3085 14.4959C15.6743 14.2936 14.99 14.3144 14.3693 14.5548C13.7485 14.7951 13.2287 15.2405 12.896 15.8171L7.58769 25.0134C7.25779 25.5908 7.13381 26.2631 7.23608 26.9202C7.33836 27.5773 7.66082 28.1802 8.15061 28.63L12.3069 32.413C12.1178 34.1306 12.1178 35.8637 12.3069 37.5813L8.15061 41.373C7.66151 41.8226 7.33949 42.4249 7.23723 43.0814C7.13497 43.7379 7.25853 44.4096 7.58769 44.9867L12.9077 54.1771C13.2403 54.7537 13.7602 55.1992 14.381 55.4395C15.0017 55.6798 15.686 55.7006 16.3202 55.4984L21.6781 53.7921C23.07 54.8177 24.5716 55.6853 26.1552 56.3792L27.3423 61.8742C27.4846 62.524 27.8448 63.1056 28.3631 63.5226C28.8814 63.9395 29.5267 64.1668 30.1919 64.1667Z" fill="#333333"/>
<path d="M35.4884 23.3334C32.3943 23.3334 29.4268 24.5625 27.2389 26.7505C25.0509 28.9384 23.8218 31.9058 23.8218 35C23.8218 38.0942 25.0509 41.0617 27.2389 43.2496C29.4268 45.4375 32.3943 46.6667 35.4884 46.6667C38.5826 46.6667 41.5501 45.4375 43.738 43.2496C45.9259 41.0617 47.1551 38.0942 47.1551 35C47.1551 31.9058 45.9259 28.9384 43.738 26.7505C41.5501 24.5625 38.5826 23.3334 35.4884 23.3334Z" fill="white"/>
<circle cx="36.7961" cy="35" r="3.88889" fill="#333333"/>
<circle cx="60.1296" cy="35" r="3.88889" fill="#333333"/>
<circle cx="48.4626" cy="27.2223" r="3.88889" fill="#333333"/>
<circle cx="60.1296" cy="19.4444" r="3.88889" fill="#333333"/>
<path d="M37.4443 29.8148L39.0888 27.6222C39.2776 27.3704 39.574 27.2222 39.8888 27.2222H43.2777" stroke="#333333" stroke-width="2" stroke-linecap="round"/>
<path d="M49.1108 22.0371L50.7553 19.8445C50.9441 19.5927 51.2405 19.4445 51.5553 19.4445H54.9442" stroke="#333333" stroke-width="2" stroke-linecap="round"/>
<circle r="3.88889" transform="matrix(1 0 0 -1 48.4626 42.7779)" fill="#333333"/>
<circle r="3.88889" transform="matrix(1 0 0 -1 60.1296 50.5556)" fill="#333333"/>
<path d="M37.4443 40.1852L39.0888 42.3778C39.2776 42.6296 39.574 42.7778 39.8888 42.7778H43.2777" stroke="#333333" stroke-width="2" stroke-linecap="round"/>
<path d="M49.1108 47.9628L50.7553 50.1554C50.9441 50.4072 51.2405 50.5554 51.5553 50.5554H54.9442" stroke="#333333" stroke-width="2" stroke-linecap="round"/>
<path d="M41.9814 35H54.9444" stroke="#333333" stroke-width="2" stroke-linecap="round"/>
</g>
<defs>
<clipPath id="clip0_12_113">
<rect width="70" height="70" fill="white" transform="translate(0.5)"/>
</clipPath>
</defs>
</svg>
