<svg width="38" height="38" viewBox="0 0 38 38" fill="none" xmlns="http://www.w3.org/2000/svg">
<g opacity="0.3" clip-path="url(#clip0_18_342)">
<path d="M37.9999 11.8935C37.9999 10.5819 36.9366 9.51848 35.625 9.51848H31.5709C32.62 8.48357 33.2916 7.12689 33.2916 5.45604C33.2916 3.39869 32.11 1.16382 28.7933 1.16382C24.4292 1.16382 20.7836 5.81051 19.0707 8.41529C17.3565 5.8111 13.5992 1.16441 9.23578 1.16441C5.91909 1.16441 4.73753 3.39929 4.73753 5.45663C4.73753 7.12685 5.42747 8.48416 6.498 9.51907H2.375C1.06341 9.51907 0 10.5825 0 11.8941V19.003H2.39578V34.4613C2.39578 35.7729 3.45915 36.8363 4.77078 36.8363H33.2589C34.5705 36.8363 35.6339 35.7729 35.6339 34.4613V19.0024H38V11.8935H37.9999Z" fill="#FF5900"/>
<path fill-rule="evenodd" clip-rule="evenodd" d="M28.7934 3.53931C30.2617 3.53931 30.9166 4.15625 30.9166 5.45656C30.9166 8.09459 27.9722 9.51778 25.2029 9.51778H21.1827C22.8701 7.01156 25.84 3.53931 28.7934 3.53931ZM9.23578 3.53934C12.1897 3.53934 15.2718 7.01159 16.9592 9.51722H12.9378C10.1685 9.51722 7.11249 8.05719 7.11249 5.41916C7.11249 4.11944 7.7674 3.53934 9.23578 3.53934ZM35.625 16.6273H20.1875V11.8934H35.625V16.6273ZM2.375 11.8934H17.8125V16.6273H2.375V11.8934Z" fill="white"/>
<path d="M4.77078 19.0023H17.8125V34.4606H4.77078V19.0023Z" fill="white"/>
<path d="M33.2595 34.4606H20.1875V19.0023H33.2595V34.4606Z" fill="white"/>
</g>
<defs>
<clipPath id="clip0_18_342">
<rect width="38" height="38" fill="white"/>
</clipPath>
</defs>
</svg>
