<svg width="185" height="48" viewBox="0 0 185 48" fill="none" xmlns="http://www.w3.org/2000/svg">
<g opacity="0.3">
<path d="M62.7777 34.1762L59.7064 39.8726C59.4628 40.3267 59.1765 40.6656 58.8473 40.8894C58.5181 41.1132 58.1593 41.2251 57.7709 41.2251C57.468 41.2251 57.1586 41.156 56.8426 41.0178L57.0993 40.228C57.3429 40.3135 57.5602 40.3563 57.7511 40.3563C58.1856 40.3563 58.5444 40.1259 58.8275 39.6652L58.9855 39.4184L56.2007 34.1762H57.2573L59.499 38.5595L61.8 34.1762H62.7777Z" fill="#333333"/>
<path d="M68.108 37.5032C68.5754 37.6151 68.9276 37.8158 69.1646 38.1054C69.4082 38.3884 69.53 38.7537 69.53 39.2012C69.53 39.8002 69.3095 40.2642 68.8684 40.5932C68.4338 40.9223 67.7985 41.0869 66.9624 41.0869H63.8023V34.1762H66.7748C67.5319 34.1762 68.1211 34.3308 68.5425 34.6402C68.9704 34.9429 69.1844 35.3806 69.1844 35.9532C69.1844 36.3284 69.0889 36.6476 68.898 36.9108C68.7136 37.1741 68.4503 37.3715 68.108 37.5032ZM64.78 37.2169H66.7057C67.1863 37.2169 67.5517 37.1214 67.8018 36.9306C68.0586 36.7397 68.187 36.46 68.187 36.0914C68.187 35.7229 68.0586 35.4431 67.8018 35.2523C67.5451 35.0548 67.1797 34.9561 66.7057 34.9561H64.78V37.2169ZM66.9427 40.3069C68.0026 40.3069 68.5326 39.912 68.5326 39.1223C68.5326 38.7274 68.3976 38.4378 68.1277 38.2535C67.8644 38.0626 67.4694 37.9672 66.9427 37.9672H64.78V40.3069H66.9427Z" fill="#333333"/>
<path d="M76.1966 40.228V41.0869H71.1799V34.1762H76.0583V35.0351H72.1674V37.1576H75.6337V37.9968H72.1674V40.228H76.1966Z" fill="#333333"/>
<path d="M83.3961 34.1762V41.0869H82.4283V35.0351H79.3669L79.2978 37.0589C79.2649 38.0133 79.1859 38.7866 79.0608 39.3789C78.9423 39.9713 78.7514 40.4188 78.488 40.7216C78.2247 41.0178 77.8692 41.1658 77.4215 41.1658C77.2174 41.1658 77.01 41.1395 76.7993 41.0869L76.8685 40.2082C76.9738 40.2345 77.0792 40.2477 77.1845 40.2477C77.4676 40.2477 77.6947 40.1358 77.8659 39.912C78.0371 39.6817 78.1654 39.3394 78.251 38.8853C78.3366 38.4312 78.3926 37.8323 78.4189 37.0885L78.5275 34.1762H83.3961Z" fill="#333333"/>
<path d="M85.5493 34.1762H86.527V39.5073L90.6153 34.1762H91.5239V41.0869H90.5561V35.7656L86.4578 41.0869H85.5493V34.1762Z" fill="#333333"/>
<path d="M98.6017 34.1762V41.0869H97.624V38.3522C96.8932 38.6352 96.2184 38.7767 95.5995 38.7767C94.7568 38.7767 94.1018 38.5727 93.6343 38.1646C93.1735 37.7566 92.9431 37.1741 92.9431 36.4172V34.1762H93.9109V36.3086C93.9109 36.822 94.0656 37.2169 94.375 37.4933C94.691 37.7697 95.1354 37.9079 95.7082 37.9079C96.3468 37.9079 96.9854 37.7632 97.624 37.4736V34.1762H98.6017Z" fill="#333333"/>
<path d="M105.774 40.228V41.0869H100.758V34.1762H105.636V35.0351H101.745V37.1576H105.211V37.9968H101.745V40.228H105.774Z" fill="#333333"/>
<path d="M113.27 34.1762V41.0869H112.283V38.0067H108.313V41.0869H107.325V34.1762H108.313V37.1478H112.283V34.1762H113.27Z" fill="#333333"/>
<path d="M115.426 34.1762H116.404V39.5073L120.492 34.1762H121.401V41.0869H120.433V35.7656L116.335 41.0869H115.426V34.1762Z" fill="#333333"/>
<path d="M128.573 40.228V41.0869H123.556V34.1762H128.434V35.0351H124.543V37.1576H128.01V37.9968H124.543V40.228H128.573Z" fill="#333333"/>
<path d="M138.73 34.1762V41.0869H137.762V35.0351H133.753V41.0869H132.775V34.1762H138.73Z" fill="#333333"/>
<path d="M143.582 34.1762C144.477 34.1762 145.182 34.3901 145.695 34.8179C146.209 35.2457 146.466 35.8347 146.466 36.585C146.466 37.3353 146.209 37.9244 145.695 38.3522C145.182 38.78 144.477 38.9939 143.582 38.9939H141.873V41.0869H140.886V34.1762H143.582ZM143.552 38.135C144.178 38.135 144.655 38.0034 144.984 37.7401C145.313 37.4703 145.478 37.0852 145.478 36.585C145.478 36.0848 145.313 35.7031 144.984 35.4398C144.655 35.17 144.178 35.0351 143.552 35.0351H141.873V38.135H143.552Z" fill="#333333"/>
<path d="M151.046 41.1658C150.349 41.1658 149.72 41.0145 149.16 40.7117C148.601 40.4024 148.159 39.9779 147.837 39.4382C147.521 38.8985 147.363 38.2963 147.363 37.6315C147.363 36.9668 147.521 36.3646 147.837 35.8249C148.159 35.2852 148.601 34.864 149.16 34.5612C149.72 34.2519 150.349 34.0972 151.046 34.0972C151.738 34.0972 152.363 34.2519 152.923 34.5612C153.482 34.864 153.92 35.2852 154.236 35.8249C154.552 36.358 154.71 36.9602 154.71 37.6315C154.71 38.3028 154.552 38.9084 154.236 39.448C153.92 39.9812 153.482 40.4024 152.923 40.7117C152.363 41.0145 151.738 41.1658 151.046 41.1658ZM151.046 40.2872C151.553 40.2872 152.008 40.172 152.409 39.9417C152.817 39.7113 153.137 39.3954 153.367 38.9939C153.604 38.5859 153.723 38.1317 153.723 37.6315C153.723 37.1313 153.604 36.6805 153.367 36.279C153.137 35.8709 152.817 35.5517 152.409 35.3214C152.008 35.091 151.553 34.9758 151.046 34.9758C150.539 34.9758 150.079 35.091 149.664 35.3214C149.256 35.5517 148.933 35.8709 148.696 36.279C148.466 36.6805 148.35 37.1313 148.35 37.6315C148.35 38.1317 148.466 38.5859 148.696 38.9939C148.933 39.3954 149.256 39.7113 149.664 39.9417C150.079 40.172 150.539 40.2872 151.046 40.2872Z" fill="#333333"/>
<path d="M162.701 40.228V42.5973H161.782V41.0869H156.094L156.084 42.5973H155.166L155.176 40.228H155.511C155.946 40.2016 156.252 39.8594 156.43 39.2012C156.607 38.5365 156.716 37.6019 156.756 36.3975L156.825 34.1762H161.683V40.228H162.701ZM157.625 36.4863C157.592 37.4604 157.513 38.2666 157.388 38.9051C157.269 39.5435 157.075 39.9844 156.805 40.228H160.706V35.0351H157.674L157.625 36.4863Z" fill="#333333"/>
<path d="M168.573 39.3592H164.899L164.139 41.0869H163.122L166.252 34.1762H167.23L170.37 41.0869H169.333L168.573 39.3592ZM168.227 38.5694L166.736 35.1832L165.245 38.5694H168.227Z" fill="#333333"/>
<path d="M177.042 38.0462H175.729V41.0869H174.761V38.0462H173.438L171.502 41.0869H170.347L172.628 37.4933L170.514 34.1762H171.571L173.418 37.1774H174.761V34.1762H175.729V37.1774H177.052L178.908 34.1762H179.965L177.852 37.5131L180.133 41.0869H178.978L177.042 38.0462Z" fill="#333333"/>
</g>
<path d="M70.3193 29.881H67.3149V25.8985H59.648V29.8699H56.5545L56.3765 23.1842H57.4558C57.9306 22.7467 58.3052 22.0421 58.5797 21.0706C58.8542 20.0991 59.0471 18.8272 59.1584 17.255L59.6146 9.70162H68.9284V23.1842H70.6086L70.3193 29.881ZM60.9722 23.1842H65.668V12.4271H62.7303L62.4632 16.8879C62.2778 19.5651 61.7808 21.6639 60.9722 23.1842Z" fill="#212121"/>
<path d="M83.4387 19.2574C83.4387 21.4303 82.9231 23.1175 81.892 24.3189C80.8682 25.5203 79.4439 26.121 77.619 26.121C75.8015 26.121 74.3735 25.5277 73.3349 24.3411C72.2963 23.1471 71.7696 21.4785 71.7548 19.3352V16.5653C71.7548 14.3404 72.2703 12.605 73.3015 11.3591C74.3327 10.1058 75.7644 9.47913 77.5967 9.47913C79.3994 9.47913 80.82 10.0947 81.8586 11.3258C82.8972 12.5494 83.4239 14.27 83.4387 16.4874V19.2574ZM80.1561 16.543C80.1561 15.082 79.9484 13.9956 79.5329 13.2836C79.1175 12.5717 78.4721 12.2157 77.5967 12.2157C76.7288 12.2157 76.0871 12.5606 75.6717 13.2503C75.2562 13.9325 75.0411 14.9745 75.0263 16.3762V19.2574C75.0263 20.6738 75.2377 21.7195 75.6605 22.3944C76.0834 23.0619 76.7362 23.3956 77.619 23.3956C78.4721 23.3956 79.1064 23.0693 79.5218 22.4166C79.9372 21.7566 80.1487 20.7369 80.1561 19.3575V16.543Z" fill="#212121"/>
<path d="M90.0596 9.70162L93.1197 21.4155L96.1687 9.70162H100.442V25.8985H97.159V21.5156L97.4595 14.7632L94.2213 25.8985H91.9958L88.7577 14.7632L89.0581 21.5156V25.8985H85.7866V9.70162H90.0596Z" fill="#212121"/>
<path d="M119.314 20.5033C119.232 22.3499 118.713 23.7478 117.756 24.6971C116.799 25.6464 115.449 26.121 113.706 26.121C111.873 26.121 110.468 25.5203 109.488 24.3189C108.517 23.1101 108.031 21.3895 108.031 19.1572V16.4318C108.031 14.2069 108.535 12.4938 109.544 11.2924C110.553 10.0835 111.955 9.47913 113.75 9.47913C115.516 9.47913 116.855 9.97231 117.767 10.9587C118.687 11.945 119.21 13.3615 119.336 15.2081H116.054C116.024 14.066 115.846 13.2799 115.52 12.8498C115.201 12.4122 114.611 12.1935 113.75 12.1935C112.875 12.1935 112.255 12.5012 111.892 13.1168C111.528 13.7249 111.336 14.7298 111.313 16.1314V19.1906C111.313 20.7999 111.491 21.9049 111.847 22.5056C112.211 23.1063 112.83 23.4067 113.706 23.4067C114.566 23.4067 115.16 23.1991 115.486 22.7837C115.813 22.361 115.998 21.6009 116.042 20.5033H119.314Z" fill="#212121"/>
<path d="M129.062 22.5835H124.6L123.732 25.8985H120.271L125.334 9.70162H128.327L133.424 25.8985H129.93L129.062 22.5835ZM125.312 19.8581H128.338L126.825 14.0846L125.312 19.8581Z" fill="#212121"/>
<path d="M142.882 9.70162H146.154V25.8985H142.882V15.1748L138.108 25.8985H134.826V9.70162H138.108V20.4365L142.882 9.70162ZM144.373 5.4299C144.373 6.41625 144.017 7.21349 143.305 7.82162C142.6 8.42974 141.669 8.73381 140.512 8.73381C139.347 8.73381 138.409 8.42974 137.697 7.82162C136.992 7.21349 136.64 6.41625 136.64 5.4299H138.943C138.943 5.8897 139.08 6.24939 139.355 6.50895C139.637 6.7611 140.022 6.88718 140.512 6.88718C140.994 6.88718 141.373 6.7611 141.647 6.50895C141.922 6.24939 142.059 5.8897 142.059 5.4299H144.373Z" fill="#212121"/>
<path d="M159.262 12.4271H155.256V25.8985H151.973V12.4271H148.034V9.70162H159.262V12.4271Z" fill="#212121"/>
<path d="M172.237 19.2574C172.237 21.4303 171.721 23.1175 170.69 24.3189C169.666 25.5203 168.242 26.121 166.417 26.121C164.6 26.121 163.171 25.5277 162.133 24.3411C161.094 23.1471 160.568 21.4785 160.553 19.3352V16.5653C160.553 14.3404 161.068 12.605 162.1 11.3591C163.131 10.1058 164.562 9.47913 166.395 9.47913C168.197 9.47913 169.618 10.0947 170.657 11.3258C171.695 12.5494 172.222 14.27 172.237 16.4874V19.2574ZM168.954 16.543C168.954 15.082 168.746 13.9956 168.331 13.2836C167.916 12.5717 167.27 12.2157 166.395 12.2157C165.527 12.2157 164.885 12.5606 164.47 13.2503C164.054 13.9325 163.839 14.9745 163.824 16.3762V19.2574C163.824 20.6738 164.036 21.7195 164.459 22.3944C164.881 23.0619 165.534 23.3956 166.417 23.3956C167.27 23.3956 167.904 23.0693 168.32 22.4166C168.735 21.7566 168.947 20.7369 168.954 19.3575V16.543Z" fill="#212121"/>
<path d="M174.585 25.8985V9.70162H179.592C181.283 9.70162 182.567 10.0798 183.442 10.8363C184.325 11.5853 184.766 12.6866 184.766 14.1402C184.766 14.9634 184.585 15.6716 184.221 16.2649C183.858 16.8582 183.361 17.2921 182.73 17.5665C183.457 17.7741 184.017 18.1931 184.41 18.8235C184.803 19.4465 185 20.2177 185 21.1374C185 22.7096 184.566 23.8962 183.698 24.6971C182.838 25.4981 181.588 25.8985 179.948 25.8985H174.585ZM177.856 18.8569V23.1842H179.948C180.534 23.1842 180.979 23.0025 181.283 22.6391C181.588 22.2757 181.74 21.7603 181.74 21.0929C181.74 19.6393 181.213 18.894 180.16 18.8569H177.856ZM177.856 16.4763H179.559C180.842 16.4763 181.484 15.8125 181.484 14.485C181.484 13.7508 181.335 13.2243 181.039 12.9054C180.742 12.5865 180.26 12.4271 179.592 12.4271H177.856V16.4763Z" fill="#212121"/>
<path fill-rule="evenodd" clip-rule="evenodd" d="M23.7264 0.59247C22.3322 -0.19749 20.6255 -0.19749 19.2314 0.59247L10.7394 5.40428L2.32507 10.3504C0.943673 11.1625 0.0903286 12.6401 0.0775905 14.242L0 24L0.0775905 33.758C0.0903286 35.3599 0.943672 36.8375 2.32507 37.6496L10.7394 42.5957L19.2314 47.4075C20.6255 48.1975 22.3322 48.1975 23.7264 47.4075L32.2183 42.5957L40.6327 37.6496C42.0141 36.8375 42.8674 35.3599 42.8802 33.758L42.9578 24L42.8802 14.242C42.8674 12.6401 42.0141 11.1625 40.6327 10.3504L32.2183 5.40428L23.7264 0.59247ZM24.1376 25.1119L37.6476 17.3142C38.7376 16.6851 39.111 15.2918 38.4817 14.2021C37.8524 13.1124 36.4586 12.7391 35.3686 13.3682L22.0041 21.0819L8.63947 13.3682C7.54948 12.7391 6.15571 13.1124 5.5264 14.2021C4.89709 15.2917 5.27055 16.6851 6.36054 17.3142L19.5798 24.9441V39.568C19.5798 40.8263 20.6001 41.8463 21.8587 41.8463C23.1173 41.8463 24.1376 40.8263 24.1376 39.568V25.1119Z" fill="#FF5900"/>
</svg>
