<svg width="36" height="36" viewBox="0 0 36 36" fill="none" xmlns="http://www.w3.org/2000/svg">
<g opacity="0.3">
<path d="M14.181 22.4453V24.2923H21.1305V26.0766H14.181V29.7392H11.0192V26.0766H7.82617V24.2923H11.0192V7.82617H19.6279C22.487 7.82617 24.7201 8.46269 26.327 9.73574C27.934 10.9879 28.7375 12.7827 28.7375 15.1201C28.7375 17.4783 27.934 19.294 26.327 20.567C24.7201 21.8192 22.487 22.4453 19.6279 22.4453H14.181ZM25.5757 15.1514C25.5757 13.6697 25.0644 12.5323 24.0418 11.7392C23.0192 10.9462 21.5479 10.5497 19.6279 10.5497H14.181V19.847H19.6279C21.527 19.847 22.9879 19.4401 24.0105 18.6262C25.054 17.7914 25.5757 16.6331 25.5757 15.1514Z" fill="#FF5900"/>
</g>
</svg>
