<svg width="39" height="40" viewBox="0 0 39 40" fill="none" xmlns="http://www.w3.org/2000/svg">
<g opacity="0.3" clip-path="url(#clip0_18_322)">
<path d="M15.145 20.1347C14.1366 20.1347 13.3133 19.8029 12.6751 19.1391C12.0369 18.4754 11.7178 17.5691 11.7178 16.4203C11.7178 15.6672 11.8646 15.0098 12.1581 14.4482C12.4517 13.8865 12.8538 13.4589 13.3644 13.1653C13.8877 12.859 14.4813 12.7058 15.145 12.7058C16.1662 12.7058 16.9959 13.0441 17.6341 13.7206C18.2723 14.3843 18.5915 15.2842 18.5915 16.4203C18.5915 17.5691 18.2723 18.4754 17.6341 19.1391C16.9959 19.8029 16.1662 20.1347 15.145 20.1347ZM23.0718 12.8781H25.8289L16.6768 26.2809H13.9196L23.0718 12.8781ZM15.145 18.3158C15.4897 18.3158 15.7641 18.1626 15.9684 17.8563C16.1726 17.5499 16.2747 17.0713 16.2747 16.4203C16.2747 15.7693 16.1726 15.2906 15.9684 14.9843C15.7641 14.6779 15.4897 14.5248 15.145 14.5248C14.8132 14.5248 14.5387 14.6843 14.3217 15.0034C14.1175 15.3098 14.0154 15.7821 14.0154 16.4203C14.0154 17.0585 14.1175 17.5372 14.3217 17.8563C14.5387 18.1626 14.8132 18.3158 15.145 18.3158ZM24.6035 26.4532C23.5824 26.4532 22.7527 26.1213 22.1145 25.4575C21.489 24.7938 21.1763 23.8875 21.1763 22.7387C21.1763 21.6027 21.4954 20.7028 22.1336 20.039C22.7718 19.3625 23.5951 19.0242 24.6035 19.0242C25.6247 19.0242 26.4544 19.3625 27.0926 20.039C27.7308 20.7028 28.0499 21.6027 28.0499 22.7387C28.0499 23.8875 27.7308 24.7938 27.0926 25.4575C26.4544 26.1213 25.6247 26.4532 24.6035 26.4532ZM24.6035 24.6342C24.9482 24.6342 25.2226 24.4811 25.4268 24.1747C25.6311 23.8684 25.7332 23.3897 25.7332 22.7387C25.7332 22.0877 25.6311 21.609 25.4268 21.3027C25.2226 20.9964 24.9482 20.8432 24.6035 20.8432C24.2589 20.8432 23.9845 20.9964 23.7802 21.3027C23.576 21.609 23.4739 22.0877 23.4739 22.7387C23.4739 23.3897 23.576 23.8684 23.7802 24.1747C23.9845 24.4811 24.2589 24.6342 24.6035 24.6342Z" fill="#FF5900"/>
<path fill-rule="evenodd" clip-rule="evenodd" d="M24.8202 4.92926L19.9234 -0.0585938L15.0267 4.92926L8.13335 3.77224L7.10359 10.6857L0.84668 13.8015L4.07723 19.9999L0.84668 26.1983L7.10359 29.3141L8.13335 36.2276L15.0267 35.0705L19.9234 40.0584L24.8202 35.0705L31.7135 36.2276L32.7433 29.3141L39.0002 26.1983L35.7696 19.9999L39.0002 13.8015L32.7433 10.6857L31.7135 3.77224L24.8202 4.92926ZM29.4186 6.93095L23.867 7.86275L19.9234 3.84578L15.9798 7.86275L10.4283 6.93095L9.59897 12.4987L4.55996 15.008L7.16169 19.9999L4.55996 24.9918L9.59897 27.5011L10.4283 33.0689L15.9798 32.137L19.9234 36.154L23.867 32.137L29.4186 33.0689L30.2479 27.5011L35.2869 24.9918L32.6852 19.9999L35.2869 15.008L30.2479 12.4987L29.4186 6.93095Z" fill="#FF5900"/>
</g>
<defs>
<clipPath id="clip0_18_322">
<rect width="39" height="39" fill="white" transform="translate(0 0.5)"/>
</clipPath>
</defs>
</svg>
