<svg width="40" height="40" viewBox="0 0 40 40" fill="none" xmlns="http://www.w3.org/2000/svg">
<g clip-path="url(#clip0_38_48)">
<path d="M26.1385 0H13.8598C2.65479 0 -0.00146484 2.65625 -0.00146484 13.8612V26.14C-0.00146484 37.345 2.65479 40.0013 13.8598 40.0013H26.1385C37.3435 40.0013 39.9998 37.345 39.9998 26.14V13.8612C39.9998 2.65625 37.3173 0 26.1385 0ZM32.291 28.535H29.3873C28.2873 28.535 27.9485 27.6625 25.9698 25.6575C24.251 23.9912 23.4898 23.77 23.066 23.77C22.4673 23.77 22.2973 23.9388 22.2973 24.76V27.3837C22.2973 28.0875 22.076 28.51 20.2135 28.51C17.1335 28.51 13.716 26.6475 11.3198 23.1775C7.70604 18.0925 6.71729 14.2837 6.71729 13.4963C6.71729 13.0725 6.88603 12.6762 7.69978 12.6762H10.6098C11.346 12.6762 11.626 13.015 11.9123 13.8025C13.351 17.9562 15.7473 21.595 16.736 21.595C17.101 21.595 17.2698 21.4263 17.2698 20.495V16.205C17.1585 14.2262 16.1173 14.0562 16.1173 13.3537C16.1173 13.015 16.3973 12.6762 16.846 12.6762H21.4223C22.041 12.6762 22.2685 13.015 22.2685 13.7437V19.5312C22.2685 20.1562 22.5485 20.3775 22.7173 20.3775C23.0823 20.3775 23.3948 20.1562 24.071 19.4788C26.161 17.135 27.6585 13.5213 27.6585 13.5213C27.8535 13.0975 28.1923 12.7013 28.9285 12.7013H31.8385C32.711 12.7013 32.906 13.15 32.711 13.775C32.346 15.4675 28.7848 20.4938 28.7848 20.4938C28.4785 21.0013 28.361 21.2225 28.7848 21.7887C29.0973 22.2125 30.1135 23.0913 30.7898 23.8787C32.0335 25.2913 32.9898 26.4762 33.2448 27.2962C33.531 28.11 33.1085 28.5337 32.2873 28.5337L32.291 28.535Z" fill="white"/>
</g>
<defs>
<clipPath id="clip0_38_48">
<rect width="40" height="40" fill="white"/>
</clipPath>
</defs>
</svg>
